<svg aria-roledescription="er" viewBox="0 0 469.5573425292969 314" style="max-width: 469.557px; background-color: white;" xmlns:xlink="http://www.w3.org/1999/xlink" xmlns="http://www.w3.org/2000/svg" width="100%" id="mermaid-0"><style>#mermaid-0{font-family:"trebuchet ms",verdana,arial,sans-serif;font-size:16px;fill:#000000;}#mermaid-0 .error-icon{fill:#552222;}#mermaid-0 .error-text{fill:#552222;stroke:#552222;}#mermaid-0 .edge-thickness-normal{stroke-width:2px;}#mermaid-0 .edge-thickness-thick{stroke-width:3.5px;}#mermaid-0 .edge-pattern-solid{stroke-dasharray:0;}#mermaid-0 .edge-pattern-dashed{stroke-dasharray:3;}#mermaid-0 .edge-pattern-dotted{stroke-dasharray:2;}#mermaid-0 .marker{fill:#000000;stroke:#000000;}#mermaid-0 .marker.cross{stroke:#000000;}#mermaid-0 svg{font-family:"trebuchet ms",verdana,arial,sans-serif;font-size:16px;}#mermaid-0 .entityBox{fill:#cde498;stroke:#13540c;}#mermaid-0 .attributeBoxOdd{fill:#ffffff;stroke:#13540c;}#mermaid-0 .attributeBoxEven{fill:#f2f2f2;stroke:#13540c;}#mermaid-0 .relationshipLabelBox{fill:hsl(78.1578947368, 58.4615384615%, 84.5098039216%);opacity:0.7;background-color:hsl(78.1578947368, 58.4615384615%, 84.5098039216%);}#mermaid-0 .relationshipLabelBox rect{opacity:0.5;}#mermaid-0 .relationshipLine{stroke:#000000;}#mermaid-0 .entityTitleText{text-anchor:middle;font-size:18px;fill:#000000;}#mermaid-0 :root{--mermaid-font-family:"trebuchet ms",verdana,arial,sans-serif;}</style><g/><defs><marker orient="auto" markerHeight="18" markerWidth="18" refY="9" refX="0" id="ONLY_ONE_START"><path d="M9,0 L9,18 M15,0 L15,18" fill="none" stroke="gray"/></marker></defs><defs><marker orient="auto" markerHeight="18" markerWidth="18" refY="9" refX="18" id="ONLY_ONE_END"><path d="M3,0 L3,18 M9,0 L9,18" fill="none" stroke="gray"/></marker></defs><defs><marker orient="auto" markerHeight="18" markerWidth="30" refY="9" refX="0" id="ZERO_OR_ONE_START"><circle r="6" cy="9" cx="21" fill="white" stroke="gray"/><path d="M9,0 L9,18" fill="none" stroke="gray"/></marker></defs><defs><marker orient="auto" markerHeight="18" markerWidth="30" refY="9" refX="30" id="ZERO_OR_ONE_END"><circle r="6" cy="9" cx="9" fill="white" stroke="gray"/><path d="M21,0 L21,18" fill="none" stroke="gray"/></marker></defs><defs><marker orient="auto" markerHeight="36" markerWidth="45" refY="18" refX="18" id="ONE_OR_MORE_START"><path d="M0,18 Q 18,0 36,18 Q 18,36 0,18 M42,9 L42,27" fill="none" stroke="gray"/></marker></defs><defs><marker orient="auto" markerHeight="36" markerWidth="45" refY="18" refX="27" id="ONE_OR_MORE_END"><path d="M3,9 L3,27 M9,18 Q27,0 45,18 Q27,36 9,18" fill="none" stroke="gray"/></marker></defs><defs><marker orient="auto" markerHeight="36" markerWidth="57" refY="18" refX="18" id="ZERO_OR_MORE_START"><circle r="6" cy="18" cx="48" fill="white" stroke="gray"/><path d="M0,18 Q18,0 36,18 Q18,36 0,18" fill="none" stroke="gray"/></marker></defs><defs><marker orient="auto" markerHeight="36" markerWidth="57" refY="18" refX="39" id="ZERO_OR_MORE_END"><circle r="6" cy="18" cx="9" fill="white" stroke="gray"/><path d="M21,18 Q39,0 57,18 Q39,36 21,18" fill="none" stroke="gray"/></marker></defs><path style="stroke: gray; fill: none;" marker-start="url(#ZERO_OR_MORE_START)" marker-end="url(#ONLY_ONE_END)" d="M81.3671875,107L81.3671875,115.33333333333333C81.3671875,123.66666666666667,81.3671875,140.33333333333334,85.82351548573975,157C90.27984347147951,173.66666666666666,99.192499442959,190.33333333333334,103.64882742869877,198.66666666666666L108.1051554144385,207" class="er relationshipLine"/><path style="stroke: gray; fill: none;" marker-start="url(#ZERO_OR_MORE_START)" marker-end="url(#ONLY_ONE_END)" d="M368.78430991759274,107L373.24063790333247,115.33333333333333C377.69696588907226,123.66666666666667,386.6096218605517,140.33333333333334,391.06594984629146,158.75C395.52227783203125,177.16666666666666,395.52227783203125,197.33333333333334,395.52227783203125,207.41666666666666L395.52227783203125,217.5" class="er relationshipLine"/><path style="stroke: gray; fill: none;" marker-start="url(#ZERO_OR_MORE_START)" marker-end="url(#ONLY_ONE_END)" d="M295.8434567374979,107L286.32644120214667,115.33333333333333C276.80942566679545,123.66666666666667,257.77539459609307,140.33333333333334,238.68848814938795,157C219.60158170268286,173.66666666666666,200.46179987997508,190.33333333333334,190.89190896862115,198.66666666666666L181.3220180572673,207" class="er relationshipLine"/><g transform="translate(71.84042358398438,207 )" id="entity-habits-9598734d-7f37-4e0c-a14f-78e3582db2d0"><rect height="87" width="119.05352783203125" y="0" x="0" class="er entityBox"/><text style="dominant-baseline: middle; text-anchor: middle; font-size: 12px;" transform="translate(59.526763916015625,12)" y="0" x="0" id="text-entity-habits-9598734d-7f37-4e0c-a14f-78e3582db2d0" class="er entityLabel">habits</text><rect height="21" width="36.947052001953125" y="24" x="0" class="er attributeBoxOdd"/><text style="dominant-baseline: middle; font-size: 10.2px;" transform="translate(5,34.5)" y="0" x="0" id="text-entity-habits-9598734d-7f37-4e0c-a14f-78e3582db2d0-attr-1-type" class="er entityLabel">String</text><rect height="21" width="58.311492919921875" y="24" x="36.947052001953125" class="er attributeBoxOdd"/><text style="dominant-baseline: middle; font-size: 10.2px;" transform="translate(41.947052001953125,34.5)" y="0" x="0" id="text-entity-habits-9598734d-7f37-4e0c-a14f-78e3582db2d0-attr-1-name" class="er entityLabel">id</text><rect height="21" width="23.79498291015625" y="24" x="95.258544921875" class="er attributeBoxOdd"/><text style="dominant-baseline: middle; font-size: 10.2px;" transform="translate(100.258544921875,34.5)" y="0" x="0" id="text-entity-habits-9598734d-7f37-4e0c-a14f-78e3582db2d0-attr-1-key" class="er entityLabel">PK</text><rect height="21" width="36.947052001953125" y="45" x="0" class="er attributeBoxEven"/><text style="dominant-baseline: middle; font-size: 10.2px;" transform="translate(5,55.5)" y="0" x="0" id="text-entity-habits-9598734d-7f37-4e0c-a14f-78e3582db2d0-attr-2-type" class="er entityLabel">String</text><rect height="21" width="58.311492919921875" y="45" x="36.947052001953125" class="er attributeBoxEven"/><text style="dominant-baseline: middle; font-size: 10.2px;" transform="translate(41.947052001953125,55.5)" y="0" x="0" id="text-entity-habits-9598734d-7f37-4e0c-a14f-78e3582db2d0-attr-2-name" class="er entityLabel">title</text><rect height="21" width="23.79498291015625" y="45" x="95.258544921875" class="er attributeBoxEven"/><text style="dominant-baseline: middle; font-size: 10.2px;" transform="translate(100.258544921875,55.5)" y="0" x="0" id="text-entity-habits-9598734d-7f37-4e0c-a14f-78e3582db2d0-attr-2-key" class="er entityLabel"/><rect height="21" width="36.947052001953125" y="66" x="0" class="er attributeBoxOdd"/><text style="dominant-baseline: middle; font-size: 10.2px;" transform="translate(5,76.5)" y="0" x="0" id="text-entity-habits-9598734d-7f37-4e0c-a14f-78e3582db2d0-attr-3-type" class="er entityLabel">String</text><rect height="21" width="58.311492919921875" y="66" x="36.947052001953125" class="er attributeBoxOdd"/><text style="dominant-baseline: middle; font-size: 10.2px;" transform="translate(41.947052001953125,76.5)" y="0" x="0" id="text-entity-habits-9598734d-7f37-4e0c-a14f-78e3582db2d0-attr-3-name" class="er entityLabel">created_at</text><rect height="21" width="23.79498291015625" y="66" x="95.258544921875" class="er attributeBoxOdd"/><text style="dominant-baseline: middle; font-size: 10.2px;" transform="translate(100.258544921875,76.5)" y="0" x="0" id="text-entity-habits-9598734d-7f37-4e0c-a14f-78e3582db2d0-attr-3-key" class="er entityLabel"/></g><g transform="translate(20,20 )" id="entity-habitweekdays-f36d6449-e861-477b-b633-e403a8520bd6"><rect height="87" width="122.734375" y="0" x="0" class="er entityBox"/><text style="dominant-baseline: middle; text-anchor: middle; font-size: 12px;" transform="translate(61.3671875,12)" y="0" x="0" id="text-entity-habitweekdays-f36d6449-e861-477b-b633-e403a8520bd6" class="er entityLabel">habit_week_days</text><rect height="21" width="39.676055908203125" y="24" x="0" class="er attributeBoxOdd"/><text style="dominant-baseline: middle; font-size: 10.2px;" transform="translate(5,34.5)" y="0" x="0" id="text-entity-habitweekdays-f36d6449-e861-477b-b633-e403a8520bd6-attr-1-type" class="er entityLabel">String</text><rect height="21" width="56.534332275390625" y="24" x="39.676055908203125" class="er attributeBoxOdd"/><text style="dominant-baseline: middle; font-size: 10.2px;" transform="translate(44.676055908203125,34.5)" y="0" x="0" id="text-entity-habitweekdays-f36d6449-e861-477b-b633-e403a8520bd6-attr-1-name" class="er entityLabel">id</text><rect height="21" width="26.52398681640625" y="24" x="96.21038818359375" class="er attributeBoxOdd"/><text style="dominant-baseline: middle; font-size: 10.2px;" transform="translate(101.21038818359375,34.5)" y="0" x="0" id="text-entity-habitweekdays-f36d6449-e861-477b-b633-e403a8520bd6-attr-1-key" class="er entityLabel">PK</text><rect height="21" width="39.676055908203125" y="45" x="0" class="er attributeBoxEven"/><text style="dominant-baseline: middle; font-size: 10.2px;" transform="translate(5,55.5)" y="0" x="0" id="text-entity-habitweekdays-f36d6449-e861-477b-b633-e403a8520bd6-attr-2-type" class="er entityLabel">String</text><rect height="21" width="56.534332275390625" y="45" x="39.676055908203125" class="er attributeBoxEven"/><text style="dominant-baseline: middle; font-size: 10.2px;" transform="translate(44.676055908203125,55.5)" y="0" x="0" id="text-entity-habitweekdays-f36d6449-e861-477b-b633-e403a8520bd6-attr-2-name" class="er entityLabel">habit_id</text><rect height="21" width="26.52398681640625" y="45" x="96.21038818359375" class="er attributeBoxEven"/><text style="dominant-baseline: middle; font-size: 10.2px;" transform="translate(101.21038818359375,55.5)" y="0" x="0" id="text-entity-habitweekdays-f36d6449-e861-477b-b633-e403a8520bd6-attr-2-key" class="er entityLabel"/><rect height="21" width="39.676055908203125" y="66" x="0" class="er attributeBoxOdd"/><text style="dominant-baseline: middle; font-size: 10.2px;" transform="translate(5,76.5)" y="0" x="0" id="text-entity-habitweekdays-f36d6449-e861-477b-b633-e403a8520bd6-attr-3-type" class="er entityLabel">Int</text><rect height="21" width="56.534332275390625" y="66" x="39.676055908203125" class="er attributeBoxOdd"/><text style="dominant-baseline: middle; font-size: 10.2px;" transform="translate(44.676055908203125,76.5)" y="0" x="0" id="text-entity-habitweekdays-f36d6449-e861-477b-b633-e403a8520bd6-attr-3-name" class="er entityLabel">weekDay</text><rect height="21" width="26.52398681640625" y="66" x="96.21038818359375" class="er attributeBoxOdd"/><text style="dominant-baseline: middle; font-size: 10.2px;" transform="translate(101.21038818359375,76.5)" y="0" x="0" id="text-entity-habitweekdays-f36d6449-e861-477b-b633-e403a8520bd6-attr-3-key" class="er entityLabel"/></g><g transform="translate(341.4872131347656,217.5 )" id="entity-days-3235a87d-9853-4e44-91b1-1492e32c5e3f"><rect height="66" width="108.07012939453125" y="0" x="0" class="er entityBox"/><text style="dominant-baseline: middle; text-anchor: middle; font-size: 12px;" transform="translate(54.035064697265625,12)" y="0" x="0" id="text-entity-days-3235a87d-9853-4e44-91b1-1492e32c5e3f" class="er entityLabel">days</text><rect height="21" width="54.113128662109375" y="24" x="0" class="er attributeBoxOdd"/><text style="dominant-baseline: middle; font-size: 10.2px;" transform="translate(5,34.5)" y="0" x="0" id="text-entity-days-3235a87d-9853-4e44-91b1-1492e32c5e3f-attr-1-type" class="er entityLabel">String</text><rect height="21" width="30.162017822265625" y="24" x="54.113128662109375" class="er attributeBoxOdd"/><text style="dominant-baseline: middle; font-size: 10.2px;" transform="translate(59.113128662109375,34.5)" y="0" x="0" id="text-entity-days-3235a87d-9853-4e44-91b1-1492e32c5e3f-attr-1-name" class="er entityLabel">id</text><rect height="21" width="23.79498291015625" y="24" x="84.275146484375" class="er attributeBoxOdd"/><text style="dominant-baseline: middle; font-size: 10.2px;" transform="translate(89.275146484375,34.5)" y="0" x="0" id="text-entity-days-3235a87d-9853-4e44-91b1-1492e32c5e3f-attr-1-key" class="er entityLabel">PK</text><rect height="21" width="54.113128662109375" y="45" x="0" class="er attributeBoxEven"/><text style="dominant-baseline: middle; font-size: 10.2px;" transform="translate(5,55.5)" y="0" x="0" id="text-entity-days-3235a87d-9853-4e44-91b1-1492e32c5e3f-attr-2-type" class="er entityLabel">DateTime</text><rect height="21" width="30.162017822265625" y="45" x="54.113128662109375" class="er attributeBoxEven"/><text style="dominant-baseline: middle; font-size: 10.2px;" transform="translate(59.113128662109375,55.5)" y="0" x="0" id="text-entity-days-3235a87d-9853-4e44-91b1-1492e32c5e3f-attr-2-name" class="er entityLabel">date</text><rect height="21" width="23.79498291015625" y="45" x="84.275146484375" class="er attributeBoxEven"/><text style="dominant-baseline: middle; font-size: 10.2px;" transform="translate(89.275146484375,55.5)" y="0" x="0" id="text-entity-days-3235a87d-9853-4e44-91b1-1492e32c5e3f-attr-2-key" class="er entityLabel"/></g><g transform="translate(292.14111328125,20 )" id="entity-dayhabit-9d14285e-98a4-4ede-981c-405674150595"><rect height="87" width="106.7623291015625" y="0" x="0" class="er entityBox"/><text style="dominant-baseline: middle; text-anchor: middle; font-size: 12px;" transform="translate(53.38116455078125,12)" y="0" x="0" id="text-entity-dayhabit-9d14285e-98a4-4ede-981c-405674150595" class="er entityLabel">day_habit</text><rect height="21" width="36.947052001953125" y="24" x="0" class="er attributeBoxOdd"/><text style="dominant-baseline: middle; font-size: 10.2px;" transform="translate(5,34.5)" y="0" x="0" id="text-entity-dayhabit-9d14285e-98a4-4ede-981c-405674150595-attr-1-type" class="er entityLabel">String</text><rect height="21" width="46.020294189453125" y="24" x="36.947052001953125" class="er attributeBoxOdd"/><text style="dominant-baseline: middle; font-size: 10.2px;" transform="translate(41.947052001953125,34.5)" y="0" x="0" id="text-entity-dayhabit-9d14285e-98a4-4ede-981c-405674150595-attr-1-name" class="er entityLabel">id</text><rect height="21" width="23.79498291015625" y="24" x="82.96734619140625" class="er attributeBoxOdd"/><text style="dominant-baseline: middle; font-size: 10.2px;" transform="translate(87.96734619140625,34.5)" y="0" x="0" id="text-entity-dayhabit-9d14285e-98a4-4ede-981c-405674150595-attr-1-key" class="er entityLabel">PK</text><rect height="21" width="36.947052001953125" y="45" x="0" class="er attributeBoxEven"/><text style="dominant-baseline: middle; font-size: 10.2px;" transform="translate(5,55.5)" y="0" x="0" id="text-entity-dayhabit-9d14285e-98a4-4ede-981c-405674150595-attr-2-type" class="er entityLabel">String</text><rect height="21" width="46.020294189453125" y="45" x="36.947052001953125" class="er attributeBoxEven"/><text style="dominant-baseline: middle; font-size: 10.2px;" transform="translate(41.947052001953125,55.5)" y="0" x="0" id="text-entity-dayhabit-9d14285e-98a4-4ede-981c-405674150595-attr-2-name" class="er entityLabel">day_id</text><rect height="21" width="23.79498291015625" y="45" x="82.96734619140625" class="er attributeBoxEven"/><text style="dominant-baseline: middle; font-size: 10.2px;" transform="translate(87.96734619140625,55.5)" y="0" x="0" id="text-entity-dayhabit-9d14285e-98a4-4ede-981c-405674150595-attr-2-key" class="er entityLabel"/><rect height="21" width="36.947052001953125" y="66" x="0" class="er attributeBoxOdd"/><text style="dominant-baseline: middle; font-size: 10.2px;" transform="translate(5,76.5)" y="0" x="0" id="text-entity-dayhabit-9d14285e-98a4-4ede-981c-405674150595-attr-3-type" class="er entityLabel">String</text><rect height="21" width="46.020294189453125" y="66" x="36.947052001953125" class="er attributeBoxOdd"/><text style="dominant-baseline: middle; font-size: 10.2px;" transform="translate(41.947052001953125,76.5)" y="0" x="0" id="text-entity-dayhabit-9d14285e-98a4-4ede-981c-405674150595-attr-3-name" class="er entityLabel">habit_id</text><rect height="21" width="23.79498291015625" y="66" x="82.96734619140625" class="er attributeBoxOdd"/><text style="dominant-baseline: middle; font-size: 10.2px;" transform="translate(87.96734619140625,76.5)" y="0" x="0" id="text-entity-dayhabit-9d14285e-98a4-4ede-981c-405674150595-attr-3-key" class="er entityLabel"/></g><rect height="14" width="26.6875" y="152.1707000732422" x="73.08502197265625" class="er relationshipLabelBox"/><text style="text-anchor: middle; dominant-baseline: middle; font-size: 12px;" y="159.1707000732422" x="86.42877197265625" id="rel1" class="er relationshipLabel">habit</text><rect height="14" width="19.359375" y="152.9938201904297" x="381.6798400878906" class="er relationshipLabelBox"/><text style="text-anchor: middle; dominant-baseline: middle; font-size: 12px;" y="159.9938201904297" x="391.3595275878906" id="rel2" class="er relationshipLabel">day</text><rect height="14" width="26.6875" y="150.05235290527344" x="225.2847137451172" class="er relationshipLabelBox"/><text style="text-anchor: middle; dominant-baseline: middle; font-size: 12px;" y="157.05235290527344" x="238.6284637451172" id="rel3" class="er relationshipLabel">habit</text></svg>